<svg width="540" height="50" viewBox="0 0 540 50" fill="none" xmlns="http://www.w3.org/2000/svg">
<g style="mix-blend-mode:luminosity">
<path d="M309.729 31.8765C312.428 31.4006 315.127 30.923 317.825 30.4436L317.901 30.4274L313.737 25.4739C311.446 22.7495 309.572 20.5098 309.572 20.4971C309.572 20.4727 313.873 8.63085 313.897 8.58863C313.905 8.57468 316.831 13.627 320.991 20.836C324.885 27.5851 328.095 33.1497 328.125 33.2019L328.179 33.2966L314.944 33.2949L301.709 33.2931L309.729 31.8765ZM360.484 30.6784C358.469 30.5494 357.298 29.4022 356.987 27.2549C356.904 26.6838 356.904 26.6688 356.896 22.9607L356.887 19.3716H358.671L358.678 22.843C358.684 25.9719 358.688 26.3387 358.718 26.5587C358.839 27.452 359.081 28.0528 359.492 28.4838C359.822 28.8289 360.207 29.031 360.741 29.1381C360.993 29.1887 361.709 29.1887 361.938 29.1383C362.479 29.0194 362.913 28.7839 363.296 28.4015C363.732 27.9657 364.054 27.3473 364.21 26.6484L364.263 26.4125L364.269 22.9117L364.274 19.4109H366.095V30.4177H364.293V29.5446C364.293 28.9513 364.287 28.6734 364.273 28.6781C364.262 28.6818 364.215 28.7526 364.17 28.8355C363.859 29.4015 363.342 29.9195 362.776 30.2314C362.096 30.6052 361.415 30.7383 360.484 30.6786V30.6784ZM380.932 30.6697C380.221 30.6162 379.472 30.3716 378.86 29.9929C377.57 29.1952 376.807 27.8799 376.584 26.0698C376.506 25.4435 376.497 24.602 376.562 24.0698C376.706 22.8806 377.173 21.7131 377.839 20.8796C378.009 20.6661 378.396 20.2791 378.61 20.1086C379.185 19.6486 379.859 19.3271 380.578 19.1689C380.996 19.0777 381.731 19.0348 382.174 19.0759C383.289 19.1792 384.31 19.7038 385.004 20.5294C385.709 21.3684 386.097 22.5407 386.146 23.984C386.154 24.2102 386.156 24.6067 386.15 24.8652L386.14 25.3354L382.238 25.3402L378.336 25.3451V25.5194C378.336 26.0495 378.464 26.6533 378.687 27.167C378.879 27.6101 379.21 28.0938 379.481 28.3279C380.036 28.8079 380.716 29.0952 381.459 29.1643C381.735 29.19 382.438 29.1629 382.752 29.1146C383.649 28.9768 384.501 28.6253 385.189 28.1093C385.246 28.0662 385.303 28.0242 385.361 27.9832C385.381 27.9706 385.386 28.1292 385.386 28.7961L385.385 29.6245L385.201 29.7386C384.422 30.22 383.53 30.5293 382.586 30.645C382.304 30.6795 381.27 30.695 380.932 30.6695V30.6697ZM384.329 23.6825C384.329 22.7945 383.954 21.808 383.425 21.3C383.047 20.9376 382.59 20.716 382.047 20.6319C381.79 20.5922 381.249 20.6075 380.978 20.6621C380.405 20.778 379.931 21.0297 379.518 21.4379C379.083 21.8675 378.757 22.3894 378.552 22.9839C378.479 23.1978 378.392 23.5487 378.366 23.7441L378.353 23.8371H384.329L384.329 23.6825ZM331.394 30.3932C331.399 30.3796 332.724 26.8985 334.339 22.6572L337.276 14.9456H339.163L339.241 15.1462C339.48 15.7597 345.119 30.4009 345.119 30.4086C345.119 30.4135 344.668 30.4177 344.116 30.4175L343.112 30.4173L342.299 28.2534L341.486 26.0893H334.941L334.913 26.1627C334.897 26.2032 334.55 27.1769 334.141 28.3265L333.398 30.417L332.392 30.4173C331.596 30.4175 331.388 30.4124 331.394 30.3931V30.3932ZM340.889 24.4379C340.889 24.4344 340.342 22.9516 339.673 21.1427C338.423 17.7586 338.353 17.555 338.254 17.0116C338.208 16.7569 338.184 16.75 338.157 16.9823C338.137 17.1484 338.052 17.5203 337.986 17.7265C337.953 17.8289 337.39 19.3746 336.735 21.1617C336.079 22.9487 335.542 24.4182 335.542 24.4274C335.542 24.4366 336.745 24.4441 338.216 24.4441C339.686 24.4441 340.889 24.4414 340.889 24.438L340.889 24.4379ZM345.726 30.1358V29.854L348.987 25.3718L352.248 20.8896L349.296 20.8796L346.343 20.8699L346.338 20.1208L346.333 19.3716H354.873V19.8777L351.612 24.3843C349.818 26.8631 348.351 28.8953 348.351 28.9004C348.351 28.9054 349.801 28.9096 351.573 28.9096H354.794V30.4177H345.726V30.1358ZM369.653 30.4046C369.646 30.3974 369.64 27.912 369.64 24.8816V19.3716H371.422V20.5076C371.422 21.1324 371.43 21.6435 371.439 21.6435C371.448 21.6435 371.492 21.5413 371.535 21.4162C371.736 20.8435 372.083 20.3084 372.531 19.8829C372.934 19.4998 373.395 19.2706 373.939 19.1829C374.092 19.1585 374.221 19.1536 374.526 19.1616C374.91 19.1715 375.111 19.1996 375.344 19.2759L375.417 19.2999V21.1499L375.207 21.0445C374.835 20.8584 374.468 20.7846 374.027 20.8076C373.74 20.8224 373.551 20.8594 373.322 20.9454C372.856 21.1176 372.461 21.4404 372.199 21.8626C371.811 22.4808 371.535 23.2754 371.454 24.0058C371.439 24.1368 371.43 25.2042 371.427 27.3084L371.422 30.4177H370.544C370.061 30.4177 369.66 30.4117 369.653 30.4046ZM293.846 30.3659C293.846 30.3589 295.808 26.9526 298.206 22.7962L302.567 15.2391L307.649 10.9746C310.444 8.6291 312.738 6.70695 312.747 6.70346C312.756 6.69998 312.72 6.79243 312.665 6.90895C312.611 7.02565 310.128 12.3516 307.147 18.7447L301.728 30.3685L297.787 30.3735C295.619 30.3763 293.846 30.3728 293.846 30.3659Z" fill="white"/>
</g>
<g style="mix-blend-mode:luminosity">
<path d="M463.375 26.7148L464.528 24.037C465.774 24.9668 467.429 25.4503 469.065 25.4503C470.274 25.4503 471.036 24.9854 471.036 24.2787C471.018 22.3076 463.803 23.8511 463.747 18.9047C463.728 16.3943 465.96 14.4604 469.121 14.4604C470.999 14.4604 472.877 14.9252 474.216 15.9852L473.138 18.7187C471.91 17.9377 470.385 17.3798 468.935 17.3798C467.949 17.3798 467.299 17.8447 467.299 18.4398C467.317 20.3737 474.588 19.3138 474.662 24.037C474.662 26.6032 472.487 28.4069 469.363 28.4069C467.075 28.4069 464.974 27.8677 463.375 26.7148ZM507.614 23.07C507.037 24.0742 505.959 24.7622 504.713 24.7622C502.872 24.7622 501.384 23.2746 501.384 21.4336C501.384 19.5927 502.872 18.1051 504.713 18.1051C505.959 18.1051 507.037 18.7931 507.614 19.7973L510.793 18.0307C509.603 15.9108 507.316 14.4604 504.713 14.4604C500.863 14.4604 497.739 17.5844 497.739 21.4336C497.739 25.2829 500.863 28.4069 504.713 28.4069C507.335 28.4069 509.603 26.9751 510.793 24.8366L507.614 23.07ZM476.262 8.67719H480.241V28.1466H476.262V8.67719ZM512.355 8.67719V28.1466H516.335V22.3076L521.058 28.1466H526.153L520.147 21.2105L525.707 14.7393H520.835L516.335 20.1134V8.67719H512.355ZM492.068 23.1072C491.491 24.0556 490.301 24.7622 488.962 24.7622C487.121 24.7622 485.634 23.2746 485.634 21.4336C485.634 19.5927 487.121 18.1051 488.962 18.1051C490.301 18.1051 491.491 18.8489 492.068 19.8158V23.1072ZM492.068 14.7393V16.3199C491.417 15.2228 489.799 14.4604 488.107 14.4604C484.611 14.4604 481.859 17.5472 481.859 21.4151C481.859 25.2829 484.611 28.4069 488.107 28.4069C489.799 28.4069 491.417 27.6445 492.068 26.5474V28.128H496.047V14.7393H492.068Z" fill="white"/>
<path d="M438.774 23.0875C438.774 24.4449 437.677 25.5421 436.32 25.5421C434.962 25.5421 433.865 24.4449 433.865 23.0875C433.865 21.73 434.962 20.6329 436.32 20.6329H438.774V23.0875ZM440.002 23.0875C440.002 21.73 441.099 20.6329 442.456 20.6329C443.814 20.6329 444.911 21.73 444.911 23.0875V29.224C444.911 30.5814 443.814 31.6786 442.456 31.6786C441.099 31.6786 440.002 30.5814 440.002 29.224V23.0875Z" fill="white"/>
<path d="M442.456 13.2322C441.099 13.2322 440.002 12.1351 440.002 10.7776C440.002 9.42013 441.099 8.323 442.456 8.323C443.814 8.323 444.911 9.42013 444.911 10.7776V13.2322H442.456ZM442.456 14.4781C443.814 14.4781 444.911 15.5752 444.911 16.9327C444.911 18.2901 443.814 19.3873 442.456 19.3873H436.301C434.944 19.3873 433.847 18.2901 433.847 16.9327C433.847 15.5752 434.944 14.4781 436.301 14.4781H442.456Z" fill="white"/>
<path d="M452.294 16.9327C452.294 15.5752 453.391 14.4781 454.748 14.4781C456.106 14.4781 457.203 15.5752 457.203 16.9327C457.203 18.2901 456.106 19.3873 454.748 19.3873H452.294V16.9327ZM451.066 16.9327C451.066 18.2901 449.969 19.3873 448.612 19.3873C447.254 19.3873 446.157 18.2901 446.157 16.9327V10.7776C446.157 9.42013 447.254 8.323 448.612 8.323C449.969 8.323 451.066 9.42013 451.066 10.7776V16.9327Z" fill="white"/>
<path d="M448.612 26.7697C449.969 26.7697 451.066 27.8668 451.066 29.2243C451.066 30.5817 449.969 31.6789 448.612 31.6789C447.254 31.6789 446.157 30.5817 446.157 29.2243V26.7697H448.612ZM448.612 25.5424C447.254 25.5424 446.157 24.4452 446.157 23.0878C446.157 21.7303 447.254 20.6332 448.612 20.6332H454.767C456.124 20.6332 457.222 21.7303 457.222 23.0878C457.222 24.4452 456.124 25.5424 454.767 25.5424H448.612Z" fill="white"/>
</g>
<g style="mix-blend-mode:luminosity">
<path fill-rule="evenodd" clip-rule="evenodd" d="M211.112 37.8449C205.748 41.7987 197.973 43.9082 191.279 43.9082C181.892 43.9082 173.442 40.4365 167.049 34.6626C166.547 34.2084 166.997 33.5897 167.6 33.9433C174.499 37.9574 183.029 40.3723 191.841 40.3723C197.784 40.3723 204.321 39.1427 210.332 36.5913C211.24 36.2055 212 37.1859 211.112 37.8449Z" fill="white"/>
<path fill-rule="evenodd" clip-rule="evenodd" d="M213.342 35.2946C212.659 34.4186 208.809 34.8807 207.081 35.0856C206.555 35.1499 206.475 34.6918 206.949 34.3623C210.015 32.2047 215.045 32.8275 215.632 33.5507C216.219 34.278 215.479 39.3207 212.598 41.7275C212.156 42.0972 211.734 41.9003 211.931 41.41C212.578 39.7948 214.029 36.1745 213.342 35.2946Z" fill="white"/>
<path fill-rule="evenodd" clip-rule="evenodd" d="M207.202 19.129V17.0316C207.202 16.7141 207.443 16.5012 207.732 16.5012H217.123C217.424 16.5012 217.665 16.7181 217.665 17.0316V18.8276C217.661 19.129 217.408 19.5228 216.958 20.1456L212.092 27.0928C213.9 27.0487 215.809 27.3179 217.448 28.242C217.818 28.4509 217.918 28.7564 217.946 29.0577V31.2958C217.946 31.6011 217.609 31.9587 217.255 31.7739C214.366 30.2592 210.529 30.0944 207.335 31.79C207.009 31.9668 206.668 31.6132 206.668 31.3079V29.1823C206.668 28.8408 206.672 28.2581 207.013 27.7398L212.651 19.6554H207.744C207.443 19.6554 207.202 19.4424 207.202 19.129ZM172.948 32.2159H170.091C169.818 32.1959 169.601 31.9909 169.581 31.7297V17.0677C169.581 16.7744 169.826 16.5413 170.131 16.5413H172.795C173.072 16.5533 173.293 16.7664 173.313 17.0315V18.9482H173.366C174.061 17.0959 175.367 16.2321 177.127 16.2321C178.915 16.2321 180.032 17.0959 180.835 18.9482C181.526 17.0959 183.097 16.2321 184.781 16.2321C185.978 16.2321 187.288 16.7263 188.088 17.8353C188.992 19.0688 188.807 20.8608 188.807 22.4319L188.803 31.6856C188.803 31.9789 188.558 32.216 188.253 32.216H185.4C185.115 32.196 184.885 31.9669 184.885 31.6856V23.9146C184.885 23.2957 184.942 21.7527 184.805 21.1662C184.592 20.1817 183.953 19.9044 183.126 19.9044C182.434 19.9044 181.711 20.3665 181.418 21.1059C181.125 21.8453 181.153 23.0828 181.153 23.9146V31.6855C181.153 31.9788 180.908 32.2159 180.602 32.2159H177.749C177.46 32.1959 177.235 31.9668 177.235 31.6855L177.231 23.9146C177.231 22.2792 177.5 19.8724 175.471 19.8724C173.418 19.8724 173.498 22.2189 173.498 23.9146V31.6855C173.498 31.9788 173.253 32.2159 172.948 32.2159ZM225.75 16.232C229.989 16.232 232.283 19.8723 232.283 24.5012C232.283 28.9733 229.748 32.5213 225.749 32.5213C221.587 32.5213 219.321 28.8809 219.321 24.3444C219.321 19.7799 221.615 16.232 225.75 16.232ZM225.774 19.2254C223.668 19.2254 223.536 22.0944 223.536 23.8824C223.536 25.6745 223.507 29.4996 225.75 29.4996C227.964 29.4996 228.068 26.4138 228.068 24.5333C228.068 23.2957 228.016 21.8171 227.642 20.6438C227.321 19.6232 226.682 19.2254 225.774 19.2254H225.774ZM237.78 32.2159H234.935C234.65 32.1959 234.421 31.9668 234.421 31.6855L234.417 17.0195C234.441 16.7503 234.678 16.5413 234.967 16.5413H237.615C237.864 16.5533 238.069 16.7222 238.125 16.9512V19.1933H238.177C238.977 17.1883 240.098 16.232 242.071 16.232C243.353 16.232 244.602 16.694 245.406 17.9597C246.153 19.1329 246.153 21.1059 246.153 22.5243V31.7538C246.121 32.011 245.884 32.2159 245.603 32.2159H242.738C242.477 32.1959 242.26 32.0029 242.232 31.7538V23.79C242.232 22.1868 242.417 19.8401 240.444 19.8401C239.749 19.8401 239.11 20.3063 238.792 21.0134C238.39 21.9096 238.338 22.8015 238.338 23.79V31.6855C238.334 31.9788 238.085 32.2159 237.78 32.2159ZM199.716 25.2124C199.716 26.3254 199.744 27.2536 199.182 28.242C198.728 29.0457 198.005 29.5398 197.205 29.5398C196.108 29.5398 195.465 28.7041 195.465 27.4705C195.465 25.0356 197.647 24.5936 199.716 24.5936V25.2124ZM202.597 32.1757C202.408 32.3445 202.135 32.3566 201.922 32.244C200.974 31.4565 200.801 31.0908 200.283 30.3395C198.716 31.9387 197.603 32.4168 195.574 32.4168C193.167 32.4168 191.298 30.9341 191.298 27.9648C191.298 25.6464 192.552 24.0672 194.344 23.2957C195.895 22.6127 198.061 22.4921 199.716 22.3032V21.9336C199.716 21.2545 199.769 20.4509 199.367 19.8643C199.021 19.338 198.354 19.1209 197.763 19.1209C196.675 19.1209 195.706 19.6794 195.469 20.8367C195.421 21.0938 195.232 21.3469 194.971 21.359L192.202 21.0617C191.969 21.0095 191.708 20.8206 191.777 20.463C192.411 17.1039 195.449 16.0913 198.165 16.0913C199.556 16.0913 201.372 16.461 202.469 17.5138C203.859 18.8116 203.726 20.5433 203.726 22.4279V26.8799C203.726 28.218 204.281 28.8045 204.803 29.5278C204.984 29.785 205.024 30.0944 204.791 30.2872C204.209 30.7734 203.172 31.6775 202.601 32.1838L202.597 32.1757H202.597ZM162.264 25.2124C162.264 26.3254 162.292 27.2536 161.729 28.242C161.275 29.0457 160.556 29.5398 159.752 29.5398C158.655 29.5398 158.016 28.7041 158.016 27.4705C158.016 25.0356 160.198 24.5936 162.264 24.5936V25.2124ZM165.145 32.1757C164.956 32.3445 164.683 32.3566 164.47 32.244C163.521 31.4565 163.352 31.0908 162.83 30.3395C161.263 31.9387 160.154 32.4168 158.121 32.4168C155.718 32.4168 153.846 30.9341 153.846 27.9648C153.846 25.6464 155.103 24.0672 156.891 23.2957C158.442 22.6127 160.608 22.4921 162.264 22.3032V21.9336C162.264 21.2545 162.316 20.4509 161.918 19.8643C161.568 19.338 160.902 19.1209 160.315 19.1209C159.226 19.1209 158.254 19.6794 158.016 20.8367C157.968 21.0938 157.779 21.3469 157.522 21.359L154.75 21.0617C154.517 21.0095 154.26 20.8206 154.324 20.463C154.963 17.1039 157.996 16.0913 160.713 16.0913C162.103 16.0913 163.919 16.461 165.016 17.5138C166.406 18.8116 166.274 20.5433 166.274 22.4279V26.8799C166.274 28.218 166.828 28.8045 167.351 29.5278C167.535 29.785 167.576 30.0944 167.342 30.2872C166.76 30.7734 165.723 31.6775 165.153 32.1838L165.145 32.1757" fill="white"/>
</g>
<g style="mix-blend-mode:luminosity">
<path d="M100.598 28.4185V22.2645H98.5387V20.2532H100.598V16.6608H102.801V20.2532H105.674V22.2645H102.801V28.2508C102.801 29.5681 103.352 30.1667 104.382 30.1667C104.788 30.1667 105.076 30.1187 105.387 29.975L106.153 31.8669C105.65 32.0823 105.124 32.1783 104.382 32.1783C101.915 32.1783 100.598 30.8133 100.598 28.4185ZM86.3981 26.1197C86.3981 22.7911 88.6972 19.8699 92.1455 19.8699C95.6416 19.8699 97.8926 22.3362 97.8926 26.1197C97.8926 26.2874 97.8686 26.5269 97.8686 26.5269H88.6015C88.7212 29.0174 90.5171 30.3581 92.337 30.3581C93.6299 30.3581 94.9229 29.8315 95.5458 28.3468L97.5095 29.1608C96.8151 30.837 95.0906 32.3697 92.385 32.3697C88.7932 32.3697 86.3981 29.6637 86.3981 26.1197ZM92.0975 21.8813C90.4694 21.8813 89.1761 22.9828 88.7449 24.707H95.5458C95.4741 23.6772 94.6117 21.8813 92.0975 21.8813ZM75.5994 30.3581H75.5037V31.9862H73.3966V14.8409H75.5994V20.2528L75.5037 21.8813H75.5994C76.27 20.8037 77.7311 19.8696 79.5987 19.8696C82.5678 19.8696 85.1781 22.5276 85.1781 26.1197C85.1781 29.7117 82.5678 32.3697 79.5987 32.3697C77.7311 32.3697 76.27 31.4356 75.5994 30.3581ZM82.975 26.1197C82.975 23.4854 81.2031 21.8813 79.2395 21.8813C77.2759 21.8813 75.5037 23.4377 75.5037 26.1197C75.5037 28.8016 77.2759 30.3581 79.2395 30.3581C81.2031 30.3581 82.975 28.7539 82.975 26.1197ZM60.7061 28.4421C60.7061 25.7845 63.1006 24.3475 65.8546 24.3475C67.435 24.3475 68.5842 24.8024 69.0394 25.0661V24.731C69.0394 22.9588 67.6264 21.8812 65.974 21.8812C64.753 21.8812 63.5795 22.4799 63.1726 23.5814L61.1613 22.7193C61.5681 21.6418 62.9808 19.8696 65.9263 19.8696C68.8 19.8696 71.1465 21.5941 71.1465 24.8987V31.9865H69.0394V30.3584H68.9434C68.2971 31.3399 67.0998 32.3697 65.0882 32.3697C62.6934 32.3697 60.7061 30.885 60.7061 28.4421ZM69.0394 26.9337C69.0394 26.9337 68.1056 26.1673 66.2374 26.1673C63.9146 26.1673 63.0048 27.4129 63.0048 28.4901C63.0048 29.7357 64.2978 30.3584 65.4474 30.3584C67.1955 30.3584 69.0394 28.8493 69.0394 26.9337ZM50.7211 20.2528L50.6254 21.8809H50.7211C51.3438 20.8034 52.8285 19.8696 54.4329 19.8696C57.4261 19.8696 58.9108 21.9049 58.9108 24.8027V31.9865H56.7077V25.1378C56.7077 22.6953 55.4865 21.8809 53.8103 21.8809C51.8944 21.8809 50.7211 23.7011 50.7211 25.497V31.9865H48.5181V14.8411H50.7211V20.2528ZM37.2882 30.358H37.1925L37.2882 31.9862V37.159H35.0851V20.2528H37.1925V21.8812H37.2882C37.9588 20.8037 39.4196 19.8696 41.2875 19.8696C44.2566 19.8696 46.8669 22.5276 46.8669 26.1196C46.8669 29.7117 44.2566 32.3697 41.2875 32.3697C39.4196 32.3697 37.9588 31.4356 37.2882 30.358ZM44.6638 26.1196C44.6638 23.4854 42.8916 21.8812 40.9283 21.8812C38.9643 21.8812 37.1925 23.4377 37.1925 26.1196C37.1925 28.8016 38.9643 30.358 40.9283 30.358C42.8916 30.358 44.6638 28.7539 44.6638 26.1196ZM30.5359 31.9865H32.7389V14.8411H30.5359V31.9865ZM20.3115 14.8408L13.8457 31.9865H16.2885L17.9644 27.3409H25.1725L26.825 31.9865H29.2672L22.8017 14.8408H20.3115ZM21.5084 17.5468H21.6045L24.4062 25.2813H18.7071L21.5084 17.5468Z" fill="white"/>
</g>
</svg>
