<svg width="295" height="253" viewBox="0 0 295 253" fill="none" xmlns="http://www.w3.org/2000/svg">
<path d="M103.142 48.292L103.967 51.0928L106.28 49.3115L140.329 23.1035L125.926 63.585L124.947 66.3359L127.865 66.2549L170.814 65.0664L135.37 89.3496L132.961 91L135.37 92.6504L170.814 116.933L127.865 115.745L124.947 115.664L125.926 118.415L140.329 158.896L106.28 132.688L103.967 130.907L103.142 133.708L91 174.921L78.8584 133.708L78.0332 130.907L75.7197 132.688L41.6699 158.896L56.0742 118.415L57.0527 115.664L54.1348 115.745L11.1846 116.933L46.6299 92.6504L49.0391 91L46.6299 89.3496L11.1846 65.0664L54.1348 66.2549L57.0527 66.3359L56.0742 63.585L41.6699 23.1035L75.7197 49.3115L78.0332 51.0928L78.8584 48.292L91 7.07812L103.142 48.292Z" stroke="#FB3038" stroke-width="4"/>
<circle cx="217" cy="45" r="4" stroke="#FF814C" stroke-width="4"/>
<circle cx="267.5" cy="108.5" r="2.5" stroke="#5C72E1" stroke-width="4"/>
<rect x="195.083" y="156.828" width="6" height="64" rx="3" transform="rotate(45 195.083 156.828)" stroke="#F37DC0" stroke-width="4"/>
<circle cx="283.5" cy="186.5" r="9.5" stroke="#FDD20D" stroke-width="4"/>
<circle cx="91" cy="246" r="5" stroke="white" stroke-width="4"/>
</svg>
